# xmcd
#
# Track frame offsets:
#	150
#	17817
#	22435
#	34892
#	44287
#	62450
#	81827
#	89325
#	100200
#	113625
#	123745
#	129557
#	136590
#	148420
#	163802
#	177525
#
# Disc length: 2690 seconds
#
# Revision: 0
# Processed by: cddbd v1.5.2PL0 Copyright (c) Steve Scherf et al.
# Submitted via: EasyCDDAExtractor 16.0.6.1
#
DISCID=e70a8010
DTITLE=Βιτάλη Ελένη - Χορέψτε γιατί χανόμαστε-1984 κέντρο Ντέφι, Ελ. Βιτάλη
DYEAR=2007
DGENRE=Ποικίλη
TTITLE0=Ο Μουσταφάς [Αντ. Πλωμαρίτη]
TTITLE1=Αλεξανδριανή φελάχα [Ι. Παπαϊωάννου]
TTITLE2=Καναρίνι μου γλυκό [παραδοσιακό]
TTITLE3=Βάρα μου το ντέφι [Τ. Σούκα-Ν. Λούκα]
TTITLE4=Δε με πόνεσε κανείς [διασκ. Μ. Μπακάλη-στ. Δ. Γκούτη]
TTITLE5=Έξω ντέρτια και καημοί [κλ. Β. Σαλέας, Στ. Καζαντζίδη]
TTITLE6=Ανοίξτε τα τρελλάδικα [Τ. Σούκα-Β. Παπαδόπουλου]
TTITLE7=Κοινωνία ένοχη [Χρ. Κολοκοτρώνη]
TTITLE8=Τι τα θέλεις τα λεφτά [Ι. Παπαϊωάννου-Β. Παπαδόπουλου]
TTITLE9=Γιούργια [Τ. Λαβίδα]
TTITLE10=Τσαντηράκι [Ν. Γιάκοβλεφ-Δ. Τζεφρώνης]
TTITLE11=Δεν ξανακάνω φυλακή-Ο Καπετανάκης [παραδοσιακό]
TTITLE12=Παίξε Χρήστο επειγόντως [Χρ. Νικολόπουλου-Μ. Ρασούλη]
TTITLE13=Ανάψτε φλόγες [Τ. Λαβίδα-Λ. Καραγεωργίου]
TTITLE14=Ιπτάμενος δίσκος [Τ. Λαβίδα]
TTITLE15=Άλλον έχεις αγκαλιά [Κ. Σούκα-Λ. Τσώλη]
EXTD=
EXTT0=
EXTT1=
EXTT2=
EXTT3=
EXTT4=
EXTT5=
EXTT6=
EXTT7=
EXTT8=
EXTT9=
EXTT10=
EXTT11=
EXTT12=
EXTT13=
EXTT14=
EXTT15=
PLAYORDER=
